<svg width="22" height="14" viewBox="0 0 22 14" fill="none" xmlns="http://www.w3.org/2000/svg">
<path d="M11 4C10.206 4.00524 9.44595 4.32299 8.88447 4.88447C8.32299 5.44595 8.00524 6.20597 8 7C8 8.642 9.358 10 11 10C12.641 10 14 8.642 14 7C14 5.359 12.641 4 11 4Z" fill="white"/>
<path d="M11 0C3.36698 0 1.07298 6.617 1.05198 6.684L0.945984 7L1.05098 7.316C1.07298 7.383 3.36698 14 11 14C18.633 14 20.927 7.383 20.948 7.316L21.054 7L20.949 6.684C20.927 6.617 18.633 0 11 0ZM11 12C5.64898 12 3.57598 8.154 3.07398 7C3.57798 5.842 5.65198 2 11 2C16.351 2 18.424 5.846 18.926 7C18.422 8.158 16.348 12 11 12Z" fill="white"/>
</svg>
